Patient4_TMGait_0pt2_02_left_19_GRF.mot
version=1
nRows=77
nColumns=19
inDegrees=no
endheader
time	F1x	F1y	F1z	M1x	M1y	M1z	F2x	F2y	F2z	M2x	M2y	M2z	EC1x	EC1y	EC1z	EC2x	EC2y	EC2z
43.12	1.8441	9.8057	1.0372	-2.7658	-0.43699	9.6203	-23.1512	747.7402	-36.2819	282.9441	58.5886	887.8714	-0.0592	0.0182	-0.0073	-0.0462	0.0165	0.9585
43.1416	1.1959	6.9126	0.73431	-1.9901	-0.35347	6.878	-24.4546	762.5222	-37.6965	288.2263	60.845	906.3347	-0.0592	0.0182	-0.0073	-0.0462	0.0165	0.9585
43.1631	0.62545	4.4219	0.49001	-1.3156	-0.308	4.504	-26.3201	780.6797	-39.3912	294.7903	63.5258	928.8326	-0.0592	0.0182	-0.0073	-0.0462	0.0165	0.9585
43.1847	0.17295	2.5108	0.30812	-0.79248	-0.28878	2.6749	-28.4833	801.4279	-41.2738	302.3472	66.3888	954.2697	-0.0592	0.0182	-0.0073	-0.0462	0.0165	0.9585
43.2063	-0.15921	1.1831	0.183	-0.42364	-0.28595	1.3973	-30.5273	823.2284	-43.2339	310.3121	69.1256	980.6361	-0.0592	0.0182	-0.0073	-0.0462	0.0165	0.9585
43.2279	-0.38638	0.33965	0.10329	-0.1832	-0.28937	0.57517	-32.015	843.7487	-45.1616	317.7944	71.4312	1005.0161	-0.0592	0.0182	-0.0073	-0.0462	0.0165	0.9585
43.2494	-0.53045	-0.17056	0.056261	-0.029939	-0.29178	0.057204	-32.6131	860.2008	-46.9454	323.7342	73.0488	1024.0224	-0.0592	0.0182	-0.0073	-0.0462	0.0165	0.9585
43.271	-0.61721	-0.51827	0.028604	0.084912	-0.28812	-0.33482	-32.1412	870.0657	-48.4521	327.1806	73.7654	1034.6452	-0.0592	0.0182	-0.0073	-0.0462	0.0165	0.9585
43.2926	-0.6724	-0.86769	0.0079905	0.21151	-0.27626	-0.78113	-30.55	871.8214	-49.5292	327.5691	73.4122	1035.0907	-0.0592	0.0182	-0.0073	-0.0462	0.0165	0.9585
43.3141	-0.71265	-1.3629	-0.016319	0.39391	-0.2538	-1.4424	-27.8755	865.3276	-50.0436	324.8618	71.8918	1025.209	-0.0592	0.0182	-0.0073	-0.0462	0.0165	0.9585
43.3357	-0.74151	-2.1207	-0.053271	0.66597	-0.21409	-2.4461	-24.2069	851.7418	-49.9272	319.5121	69.2202	1006.3836	-0.0592	0.0182	-0.0073	-0.0462	0.0165	0.9585
43.3573	-0.7524	-3.2075	-0.11153	1.0476	-0.14404	-3.8612	-19.6662	833.1018	-49.2005	312.301	65.5327	981.0409	-0.0592	0.0182	-0.0073	-0.0462	0.0165	0.9585
43.3789	-0.73125	-4.6075	-0.19933	1.5342	-0.027041	-5.6653	-14.4024	811.7877	-47.9689	304.1318	61.0614	952.0233	-0.0592	0.0182	-0.0073	-0.0462	0.0165	0.9585
43.4004	-0.6536	-6.1899	-0.31794	2.0809	0.14878	-7.694	-8.5938	790.0159	-46.4094	295.8385	56.1171	922.0039	-0.0592	0.0182	-0.0073	-0.0462	0.0165	0.9585
43.422	-0.48364	-7.6586	-0.45795	2.5842	0.38257	-9.5768	-2.4435	769.4651	-44.7391	288.0451	51.0487	893.052	-0.0592	0.0182	-0.0073	-0.0462	0.0165	0.9585
43.4436	-0.17624	-8.4943	-0.59344	2.8627	0.65356	-10.6601	3.8208	751.1008	-43.1692	281.1026	46.1919	866.4401	-0.0592	0.0182	-0.0073	-0.0462	0.0165	0.9585
43.4651	0.31662	-7.9044	-0.67642	2.6409	0.91873	-9.9477	9.9383	735.2095	-41.8614	275.1071	41.8222	842.6874	-0.0592	0.0182	-0.0073	-0.0462	0.0165	0.9585
43.4867	1.0338	-4.7975	-0.6336	1.539	1.1009	-6.0686	15.614	721.5531	-40.9092	269.96	38.1421	821.7367	-0.0592	0.0182	-0.0073	-0.0462	0.0165	0.9585
43.5083	1.9871	2.1917	-0.36564	-0.91564	1.0793	2.6876	20.531	709.5096	-40.3409	265.4192	35.2873	803.0995	-0.0592	0.0182	-0.0073	-0.0462	0.0165	0.9585
43.5299	3.1353	14.5777	0.25183	-5.2453	0.6822	18.2194	24.4099	698.1696	-40.126	261.1357	33.3149	785.9278	-0.0592	0.0182	-0.0073	-0.0462	0.0165	0.9585
43.5514	4.3477	33.7522	1.3584	-11.9279	-0.31676	42.2856	27.0445	686.4006	-40.1755	256.678	32.1879	769.0818	-0.0592	0.0182	-0.0073	-0.0462	0.0165	0.9585
43.573	5.359	60.5145	3.0834	-21.235	-2.1783	75.9167	28.2937	672.9009	-40.3497	251.5542	31.7868	751.1977	-0.0592	0.0182	-0.0073	-0.0462	0.0165	0.9585
43.5946	5.7264	94.3779	5.5088	-32.9886	-5.1632	118.5398	28.0945	656.37	-40.4679	245.278	31.9225	730.8557	-0.0592	0.0182	-0.0073	-0.0462	0.0165	0.9585
43.6161	4.9138	132.9338	8.6949	-46.3315	-9.5315	167.1767	26.5424	635.8996	-40.335	237.5162	32.3377	706.98	-0.0592	0.0182	-0.0073	-0.0462	0.0165	0.9585
43.6377	2.7411	172.637	12.6918	-60.0038	-15.3855	217.397	23.995	611.4359	-39.8271	228.2609	32.7637	679.3348	-0.0592	0.0182	-0.0073	-0.0462	0.0165	0.9585
43.6593	-0.60267	211.5961	17.2057	-73.3502	-22.2789	266.7634	21.0437	583.7791	-38.9552	217.8239	32.9988	648.5519	-0.0592	0.0182	-0.0073	-0.0462	0.0165	0.9585
43.6809	-4.731	249.8455	21.8414	-86.4126	-29.5722	315.1901	18.2812	553.8653	-37.7924	206.5689	32.9075	615.4158	-0.0592	0.0182	-0.0073	-0.0462	0.0165	0.9585
43.7024	-9.1804	287.727	26.218	-99.3495	-36.6146	362.9323	16.0636	522.229	-36.3682	194.7108	32.3855	580.3405	-0.0592	0.0182	-0.0073	-0.0462	0.0165	0.9585
43.724	-13.4077	325.2534	30.0226	-112.2021	-42.8187	409.8116	14.4504	489.0308	-34.7017	182.319	31.4147	543.4228	-0.0592	0.0182	-0.0073	-0.0462	0.0165	0.9585
43.7456	-16.855	362.0257	33.1284	-124.8481	-47.8311	455.1721	13.2756	454.3857	-32.8466	169.4343	30.0917	504.7871	-0.0592	0.0182	-0.0073	-0.0462	0.0165	0.9585
43.7671	-19.1406	397.1698	35.595	-136.9747	-51.5985	497.8478	12.2891	418.6849	-30.8655	156.1929	28.5561	464.9002	-0.0592	0.0182	-0.0073	-0.0462	0.0165	0.9585
43.7887	-20.1331	429.6495	37.5226	-148.2007	-54.215	536.5858	11.2859	382.7852	-28.8125	142.9018	26.9266	424.7488	-0.0592	0.0182	-0.0073	-0.0462	0.0165	0.9585
43.8103	-19.9163	458.6393	38.9613	-158.2168	-55.7959	570.5161	10.172	347.969	-26.7397	130.0254	25.2841	385.7818	-0.0592	0.0182	-0.0073	-0.0462	0.0165	0.9585
43.8319	-18.7419	483.5589	39.9053	-166.7996	-56.4472	599.1636	8.9666	315.6945	-24.6944	118.0936	23.6689	349.6287	-0.0592	0.0182	-0.0073	-0.0462	0.0165	0.9585
43.8534	-16.9607	503.9884	40.3191	-173.7813	-56.2659	622.2905	7.7773	287.2667	-22.7238	107.5795	22.0922	317.7371	-0.0592	0.0182	-0.0073	-0.0462	0.0165	0.9585
43.875	-14.9046	519.6331	40.1612	-179.04	-55.3268	639.7861	6.7555	263.547	-20.8894	98.793	20.5666	291.0518	-0.0592	0.0182	-0.0073	-0.0462	0.0165	0.9585
43.8966	-12.8042	530.3367	39.4177	-182.5059	-53.698	651.6423	6.0378	244.8113	-19.2696	91.8269	19.129	269.8713	-0.0592	0.0182	-0.0073	-0.0462	0.0165	0.9585
43.9181	-10.7936	536.1331	38.1298	-184.1789	-51.474	658.0106	5.692	230.7173	-17.9424	86.5466	17.8409	253.811	-0.0592	0.0182	-0.0073	-0.0462	0.0165	0.9585
43.9397	-8.9424	537.346	36.3985	-184.1653	-48.7887	659.3198	5.694	220.4199	-16.9574	82.6368	16.7678	241.9373	-0.0592	0.0182	-0.0073	-0.0462	0.0165	0.9585
43.9613	-7.2826	534.7079	34.3706	-182.7245	-45.814	656.4258	5.952	212.8363	-16.3175	79.7008	15.949	233.0551	-0.0592	0.0182	-0.0073	-0.0462	0.0165	0.9585
43.9829	-5.8442	529.3939	32.2196	-180.2807	-42.757	650.6695	6.3514	206.9203	-15.9818	77.3613	15.3874	226.0125	-0.0592	0.0182	-0.0073	-0.0462	0.0165	0.9585
44.0044	-4.6954	522.9544	30.1203	-177.3984	-39.8425	643.8166	6.7921	201.8317	-15.8788	75.3214	15.0497	219.895	-0.0592	0.0182	-0.0073	-0.0462	0.0165	0.9585
44.026	-3.9488	517.1627	28.2317	-174.7221	-37.2939	637.8947	7.2144	196.9612	-15.9208	73.3706	14.8727	214.0478	-0.0592	0.0182	-0.0073	-0.0462	0.0165	0.9585
44.0476	-3.7241	513.8226	26.7011	-172.9022	-35.3226	634.9693	7.6063	191.8513	-16.0148	71.3511	14.7745	207.982	-0.0592	0.0182	-0.0073	-0.0462	0.0165	0.9585
44.0691	-4.0983	514.6106	25.6586	-172.5344	-34.1068	636.9572	7.9748	186.0958	-16.066	69.1197	14.6613	201.2667	-0.0592	0.0182	-0.0073	-0.0462	0.0165	0.9585
44.0907	-5.0669	520.964	25.2078	-174.1186	-33.7626	645.4856	8.3011	179.2789	-15.9823	66.5261	14.445	193.4678	-0.0592	0.0182	-0.0073	-0.0462	0.0165	0.9585
44.1123	-6.5493	533.9846	25.4259	-178.0225	-34.3486	661.7776	8.5264	170.9798	-15.6826	63.4143	14.0573	184.1476	-0.0592	0.0182	-0.0073	-0.0462	0.0165	0.9585
44.1339	-8.4154	554.3197	26.3748	-184.4458	-35.8908	686.5208	8.5728	160.8304	-15.1055	59.6438	13.454	172.9255	-0.0592	0.0182	-0.0073	-0.0462	0.0165	0.9585
44.1554	-10.4913	582.0282	28.0956	-193.3827	-38.3779	719.7044	8.3655	148.5961	-14.2126	55.1203	12.6139	159.5646	-0.0592	0.0182	-0.0073	-0.0462	0.0165	0.9585
44.177	-12.5588	616.4283	30.5949	-204.581	-41.739	760.4241	7.8389	134.2964	-13.0005	49.8422	11.548	144.0921	-0.0592	0.0182	-0.0073	-0.0462	0.0165	0.9585
44.1986	-14.3851	656.0578	33.8127	-217.5369	-45.8177	806.8429	6.9547	118.2812	-11.5145	43.9296	10.3065	126.8737	-0.0592	0.0182	-0.0073	-0.0462	0.0165	0.9585
44.2201	-15.7671	698.7801	37.6193	-231.5306	-50.3871	856.3321	5.721	101.179	-9.848	37.6069	8.9746	108.5565	-0.0592	0.0182	-0.0073	-0.0462	0.0165	0.9585
44.2417	-16.5746	742.0097	41.8138	-245.7028	-55.1585	905.767	4.2072	83.7723	-8.1128	31.1596	7.6406	89.9474	-0.0592	0.0182	-0.0073	-0.0462	0.0165	0.9585
44.2633	-16.7512	783.0293	46.125	-259.1615	-59.7868	951.9123	2.5333	66.8658	-6.4089	24.8857	6.3707	71.8792	-0.0592	0.0182	-0.0073	-0.0462	0.0165	0.9585
44.2849	-16.2809	819.2703	50.2479	-271.0717	-63.9051	991.7492	0.86093	51.1835	-4.8161	19.0565	5.2012	55.1074	-0.0592	0.0182	-0.0073	-0.0462	0.0165	0.9585
44.3064	-15.1687	848.5418	53.8893	-280.7234	-67.1711	1022.7413	-0.62403	37.2882	-3.3953	13.8846	4.1431	40.2243	-0.0592	0.0182	-0.0073	-0.0462	0.0165	0.9585
44.328	-13.4643	869.2229	56.8245	-287.5849	-69.3438	1043.0684	-1.7379	25.53	-2.197	9.5047	3.1945	27.6099	-0.0592	0.0182	-0.0073	-0.0462	0.0165	0.9585
44.3496	-11.2712	880.4109	58.9235	-291.3525	-70.3183	1051.8027	-2.3431	16.0579	-1.2587	5.9752	2.3502	17.4369	-0.0592	0.0182	-0.0073	-0.0462	0.0165	0.9585
44.3711	-8.7143	882.0327	60.1294	-291.9921	-70.0883	1049.0111	-2.4144	8.8598	-0.59527	3.2932	1.6172	9.699	-0.0592	0.0182	-0.0073	-0.0462	0.0165	0.9585
44.3927	-5.8999	874.8716	60.4411	-289.7544	-68.7123	1035.7479	-2.1119	3.8012	-0.18355	1.41	1.0273	4.2525	-0.0592	0.0182	-0.0073	-0.0462	0.0165	0.9585
44.4143	-2.8888	860.4903	59.9018	-285.1561	-66.2899	1013.9411	-1.6546	0.57372	0.031941	0.21245	0.60094	0.76785	-0.0592	0.0182	-0.0073	-0.0462	0.0165	0.9585
44.4359	0.30884	841.0206	58.5846	-278.9136	-62.9402	986.1373	-1.186	-1.2692	0.10928	-0.46432	0.32893	-1.2369	-0.0592	0.0182	-0.0073	-0.0462	0.0165	0.9585
44.4574	3.7083	818.8215	56.5844	-271.8267	-58.7975	955.1074	-0.78249	-2.201	0.10212	-0.79636	0.17921	-2.2822	-0.0592	0.0182	-0.0073	-0.0462	0.0165	0.9585
44.479	7.331	796.1655	54.0197	-264.6665	-54.0139	923.4831	-0.4687	-2.6517	0.0534	-0.94326	0.10843	-2.8413	-0.0592	0.0182	-0.0073	-0.0462	0.0165	0.9585
44.5006	11.1817	775.018	51.0428	-258.0952	-48.7734	893.5335	-0.23801	-2.9715	-0.0021822	-1.0355	0.073153	-3.3007	-0.0592	0.0182	-0.0073	-0.0462	0.0165	0.9585
44.5221	15.221	756.8882	47.8554	-252.6077	-43.3187	867.0212	-0.063383	-3.415	-0.039353	-1.1686	0.034443	-3.9421	-0.0592	0.0182	-0.0073	-0.0462	0.0165	0.9585
44.5437	19.3582	742.757	44.7161	-248.5054	-37.9623	845.1244	0.093128	-4.1272	-0.043175	-1.3989	-0.037796	-4.9223	-0.0592	0.0182	-0.0073	-0.0462	0.0165	0.9585
44.5653	23.4681	733.0633	41.9187	-245.8931	-33.0585	828.4198	0.26862	-5.1311	-0.0047688	-1.7389	-0.16589	-6.2552	-0.0592	0.0182	-0.0073	-0.0462	0.0165	0.9585
44.5869	27.4076	727.7066	39.7509	-244.6848	-28.9554	816.8858	0.49397	-6.2976	0.080005	-2.148	-0.36387	-7.7733	-0.0592	0.0182	-0.0073	-0.0462	0.0165	0.9585
44.6084	31.0211	726.1067	38.4345	-244.6343	-25.9318	809.961	0.79136	-7.3127	0.20337	-2.52	-0.62691	-9.0712	-0.0592	0.0182	-0.0073	-0.0462	0.0165	0.9585
44.63	34.1634	727.3009	38.0798	-245.3794	-24.14	806.6463	1.1682	-7.6332	0.34257	-2.6681	-0.9245	-9.4512	-0.0592	0.0182	-0.0073	-0.0462	0.0165	0.9585
44.6516	36.7403	730.0343	38.677	-246.4785	-23.5892	805.6024	1.6055	-6.4506	0.45872	-2.3131	-1.1957	-7.8926	-0.0592	0.0182	-0.0073	-0.0462	0.0165	0.9585
44.6731	38.721	732.8205	40.1057	-247.4266	-24.1573	805.2155	2.0456	-2.6839	0.48995	-1.0786	-1.3338	-3.0426	-0.0592	0.0182	-0.0073	-0.0462	0.0165	0.9585
44.6947	40.1007	734.0101	42.1549	-247.6739	-25.6256	803.6804	2.3771	4.9692	0.3459	1.4928	-1.1745	6.7268	-0.0592	0.0182	-0.0073	-0.0462	0.0165	0.9585
44.7163	40.8742	731.9075	44.553	-246.6651	-27.7175	799.1365	2.419	17.8829	-0.090273	5.89	-0.49667	23.1286	-0.0592	0.0182	-0.0073	-0.0462	0.0165	0.9585
44.7379	41.0226	724.8895	46.9821	-243.8779	-30.1155	789.8046	1.9071	37.2139	-0.95716	12.5363	0.9745	47.586	-0.0592	0.0182	-0.0073	-0.0462	0.0165	0.9585
44.7594	40.5128	711.5788	49.085	-238.8808	-32.467	774.1786	0.48726	63.5031	-2.3865	21.6526	3.5255	80.7293	-0.0592	0.0182	-0.0073	-0.0462	0.0165	0.9585
